<?xml version="1.0" standalone="no"?>
<!DOCTYPE svg PUBLIC "-//W3C//DTD SVG 20010904//EN"
 "http://www.w3.org/TR/2001/REC-SVG-20010904/DTD/svg10.dtd">
<svg version="1.0" xmlns="http://www.w3.org/2000/svg"
 width="100.000000pt" height="100.000000pt" viewBox="0 0 100.000000 100.000000"
 preserveAspectRatio="xMidYMid meet">

<g transform="translate(0.000000,100.000000) scale(0.100000,-0.100000)"
fill="#000000" stroke="none">
<path d="M612 990 c-12 -5 -27 -20 -33 -34 l-12 -25 -29 22 c-25 18 -45 22
-121 24 -126 2 -130 1 -125 -53 3 -47 -2 -53 -22 -29 -16 19 -99 20 -145 1
-70 -30 -107 -96 -54 -96 15 0 49 -44 49 -64 0 -2 -25 -19 -54 -36 -30 -17
-58 -40 -61 -50 -6 -20 99 -244 133 -282 21 -25 40 -23 108 12 32 16 74 33 92
36 31 6 32 8 32 54 0 51 28 97 72 121 26 14 31 8 18 -26 -10 -26 -9 -27 15
-23 14 3 25 2 25 -2 0 -10 -31 -24 -47 -21 -7 1 -13 -6 -13 -16 0 -15 2 -16
10 -3 6 10 10 11 10 3 0 -8 8 -5 20 7 27 27 48 25 62 -5 9 -19 8 -31 -2 -50
-7 -13 -18 -22 -23 -18 -6 3 -7 1 -3 -5 16 -26 -10 -10 -29 17 -14 23 -23 27
-36 21 -9 -5 -18 -8 -20 -6 -2 2 -5 -13 -6 -35 -2 -32 1 -39 15 -39 10 0 24
-6 31 -12 11 -10 14 -10 18 0 3 6 11 12 19 12 8 0 14 5 14 11 0 6 9 23 21 37
15 19 19 35 15 58 -9 43 16 65 32 28 7 -14 12 -40 12 -57 0 -30 3 -34 45 -45
24 -6 74 -26 110 -43 36 -17 73 -29 83 -27 24 4 162 235 162 271 0 21 -8 32
-34 48 -34 20 -34 21 -29 73 6 61 -11 104 -51 126 -24 12 -31 11 -66 -8 l-40
-21 -11 40 c-25 82 -98 133 -157 109z m78 -27 c85 -59 89 -134 9 -182 -26 -16
-28 -20 -14 -31 20 -16 48 -70 42 -77 -5 -4 -15 6 -81 82 l-25 30 -1 -32 c0
-25 -5 -33 -17 -33 -15 0 -13 -4 8 -25 28 -28 65 -25 55 4 -4 9 11 -3 31 -27
42 -47 73 -55 73 -19 0 13 -6 29 -12 37 -7 8 4 0 25 -18 51 -43 79 -49 120
-24 38 22 67 14 67 -18 0 -23 -129 -229 -153 -244 -13 -8 -30 -3 -74 20 -32
18 -75 37 -95 44 -29 9 -38 17 -38 33 0 12 -7 35 -15 51 -8 15 -15 37 -15 47
0 17 3 18 20 9 11 -6 20 -7 20 -3 0 4 5 2 12 -5 7 -7 22 -12 34 -12 13 0 26
-5 29 -10 4 -6 11 -8 16 -5 5 4 9 2 9 -3 0 -4 16 -16 35 -25 41 -19 45 -20 45
-9 0 5 -18 17 -40 27 -28 13 -37 22 -30 29 14 14 13 23 -6 30 -14 5 -15 4 -4
-9 10 -12 9 -16 -5 -21 -9 -4 -20 -3 -24 2 -3 5 -10 9 -16 10 -28 2 -75 17
-75 24 0 4 -11 5 -25 2 -22 -4 -25 -1 -25 22 0 14 -4 26 -10 26 -5 0 -10 -9
-10 -20 0 -29 -30 -38 -46 -15 -13 17 -14 17 -14 2 0 -20 -11 -22 -29 -4 -10
10 -11 8 -5 -8 5 -16 4 -17 -6 -8 -8 7 -22 8 -40 3 -16 -5 -31 -6 -34 -2 -3 3
-6 0 -6 -7 0 -8 11 -10 37 -5 l37 7 -27 -33 c-15 -18 -33 -51 -39 -74 -11 -40
-16 -44 -89 -79 -43 -20 -84 -34 -91 -32 -12 5 -122 191 -140 237 -11 28 0 45
48 72 37 21 46 23 51 11 3 -8 3 -21 0 -29 -9 -22 19 -39 50 -31 44 11 89 51
113 100 12 25 25 45 30 45 4 0 22 3 39 6 28 6 31 4 31 -19 0 -15 8 -30 18 -36
22 -12 85 9 116 38 12 12 28 21 34 21 9 0 12 19 10 63 -5 103 44 147 112 100z
m-165 -17 c28 -19 33 -51 9 -64 -13 -7 -14 -13 -5 -30 10 -18 8 -25 -10 -43
-27 -27 -89 -53 -100 -42 -5 5 -15 49 -23 99 -10 71 -14 82 -18 54 l-5 -35 -1
33 c-2 25 3 35 21 42 31 13 102 6 132 -14z m-172 -23 c6 -37 -5 -63 -28 -63
-13 0 -29 75 -20 91 4 5 14 9 24 9 13 0 20 -10 24 -37z m-82 -49 c23 -21 25
-73 4 -113 -17 -35 -93 -101 -114 -101 -11 0 -12 3 -4 11 14 14 -54 140 -80
147 -22 6 -22 15 2 36 50 45 152 56 192 20z m119 -28 c0 -19 -7 -25 -36 -31
-41 -7 -39 -8 -48 23 -7 21 -6 21 21 11 23 -8 30 -7 38 5 14 23 25 20 25 -8z
m524 -21 c11 -30 6 -70 -14 -102 -25 -42 -77 -54 -118 -27 -15 10 -30 19 -34
19 -10 0 -9 13 8 70 7 20 22 36 49 50 22 11 41 23 43 27 5 12 59 -19 66 -37z
m-344 14 c0 -6 -4 -7 -10 -4 -5 3 -10 11 -10 16 0 6 5 7 10 4 6 -3 10 -11 10
-16z m-101 -393 c9 -10 8 -16 -3 -25 -12 -10 -13 -8 -9 10 4 15 3 20 -5 15 -7
-4 -12 -2 -12 3 0 15 15 14 29 -3z m-32 -38 c-3 -8 -6 -5 -6 6 -1 11 2 17 5
13 3 -3 4 -12 1 -19z"/>
<path d="M636 938 c-11 -15 -16 -45 -16 -85 0 -59 1 -63 23 -63 59 0 88 90 46
144 -25 32 -33 32 -53 4z"/>
<path d="M578 753 c5 -21 7 -23 10 -9 2 10 0 22 -6 28 -6 6 -7 0 -4 -19z"/>
<path d="M362 640 c0 -14 2 -19 5 -12 2 6 2 18 0 25 -3 6 -5 1 -5 -13z"/>
<path d="M390 656 c0 -2 7 -9 15 -16 12 -10 15 -10 15 4 0 9 -7 16 -15 16 -8
0 -15 -2 -15 -4z"/>
<path d="M295 620 c3 -5 13 -10 21 -10 8 0 14 5 14 10 0 6 -9 10 -21 10 -11 0
-17 -4 -14 -10z"/>
<path d="M251 604 c0 -11 3 -14 6 -6 3 7 2 16 -1 19 -3 4 -6 -2 -5 -13z"/>
<path d="M280 590 c6 -11 15 -20 20 -20 17 0 11 15 -11 28 -19 12 -19 11 -9
-8z"/>
<path d="M320 590 c0 -5 5 -10 10 -10 6 0 10 5 10 10 0 6 -4 10 -10 10 -5 0
-10 -4 -10 -10z"/>
<path d="M757 576 c-4 -10 -1 -13 8 -9 8 3 12 9 9 14 -7 12 -11 11 -17 -5z"/>
<path d="M185 570 c3 -5 12 -7 20 -3 21 7 19 13 -6 13 -11 0 -18 -4 -14 -10z"/>
<path d="M236 567 c3 -10 9 -15 12 -12 3 3 0 11 -7 18 -10 9 -11 8 -5 -6z"/>
<path d="M260 570 c0 -5 5 -10 11 -10 5 0 7 5 4 10 -3 6 -8 10 -11 10 -2 0 -4
-4 -4 -10z"/>
<path d="M160 558 c0 -9 5 -20 11 -23 14 -9 59 3 59 15 0 6 -9 5 -21 -2 -17
-11 -22 -10 -35 6 -12 17 -14 17 -14 4z"/>
<path d="M440 915 c0 -37 3 -45 18 -45 11 0 27 9 36 19 17 19 17 21 -8 45 -36
37 -46 32 -46 -19z"/>
<path d="M450 825 c0 -39 14 -46 30 -14 14 25 6 49 -15 49 -11 0 -15 -10 -15
-35z"/>
<path d="M142 872 c-9 -7 -3 -28 27 -92 l39 -84 21 35 c27 43 27 89 0 123 -21
26 -60 34 -87 18z"/>
<path d="M844 820 c-12 -5 -29 -19 -38 -32 -18 -25 -22 -88 -5 -88 37 0 79 56
79 105 0 27 -3 28 -36 15z"/>
<path d="M495 470 c-3 -5 1 -10 9 -10 9 0 16 5 16 10 0 6 -4 10 -9 10 -6 0
-13 -4 -16 -10z"/>
<path d="M370 402 c0 -18 64 -82 82 -82 7 0 -1 9 -19 20 -17 10 -39 32 -47 47
-8 15 -15 22 -16 15z"/>
<path d="M544 344 c-18 -14 -18 -15 4 -4 12 6 22 13 22 15 0 8 -5 6 -26 -11z"/>
</g>
</svg>
